<svg width="1158" height="774" viewBox="0 0 1158 774" fill="none" xmlns="http://www.w3.org/2000/svg">
<path d="M706.5 386.96C706.505 408.975 700.81 430.615 689.971 449.776C679.132 468.937 663.517 484.965 644.647 496.3C625.776 507.634 604.293 513.89 582.287 514.458C562.501 514.968 542.898 510.864 525.021 502.509C521.176 500.712 516.795 500.299 512.769 501.641L477.331 513.454C473.875 514.607 470.166 514.774 466.62 513.938C463.074 513.101 459.831 511.293 457.255 508.716C454.679 506.14 452.871 502.897 452.034 499.351C451.198 495.804 451.365 492.095 452.518 488.639L464.332 453.192C465.673 449.168 465.261 444.791 463.468 440.948C456.232 425.447 452.18 408.626 451.578 391.484C450.899 372.126 454.639 352.868 462.512 335.172C470.386 317.476 482.188 301.806 497.021 289.352C511.855 276.898 529.33 267.987 548.121 263.296C566.912 258.605 586.525 258.257 605.471 262.278C624.416 266.3 642.197 274.585 657.463 286.504C672.728 298.424 685.079 313.666 693.575 331.071C702.072 348.477 706.492 367.59 706.5 386.96Z" fill="#FE6349"/>
<path fill-rule="evenodd" clip-rule="evenodd" d="M606.976 334.179C616.098 334.189 624.844 337.817 631.295 344.268C637.745 350.718 641.374 359.464 641.384 368.586C641.384 407.434 583.784 438.878 581.331 440.177C580.685 440.525 579.962 440.707 579.228 440.707C578.494 440.707 577.771 440.525 577.124 440.177C574.671 438.878 517.071 407.434 517.071 368.586C517.082 359.464 520.71 350.718 527.16 344.268C533.611 337.817 542.357 334.189 551.479 334.179C562.939 334.179 572.973 339.106 579.228 347.436C585.482 339.106 595.516 334.179 606.976 334.179ZM562.532 388.925C562.079 388.793 561.603 388.755 561.134 388.812C560.665 388.869 560.212 389.02 559.803 389.256C559.394 389.493 559.038 389.81 558.754 390.188C558.471 390.567 558.266 390.998 558.154 391.458C558.042 391.917 558.023 392.394 558.1 392.861C558.176 393.328 558.347 393.774 558.601 394.173C563.106 401.975 570.593 406.446 579.144 406.446C587.695 406.446 595.187 401.97 599.692 394.173C600.156 393.367 600.282 392.41 600.042 391.512C599.801 390.613 599.213 389.848 598.409 389.383C597.604 388.918 596.648 388.791 595.75 389.032C594.853 389.273 594.087 389.861 593.623 390.667C590.357 396.321 585.217 399.432 579.144 399.432C573.071 399.432 567.93 396.325 564.66 390.667C564.441 390.248 564.14 389.878 563.774 389.578C563.408 389.279 562.986 389.056 562.532 388.925ZM564.406 367.976C563.387 367.773 562.331 367.877 561.371 368.275C560.411 368.673 559.591 369.347 559.013 370.212C558.436 371.077 558.127 372.094 558.127 373.135C558.127 374.53 558.681 375.868 559.666 376.854C560.651 377.84 561.988 378.394 563.382 378.394C564.421 378.394 565.437 378.086 566.301 377.508C567.165 376.93 567.838 376.108 568.236 375.147C568.634 374.186 568.738 373.129 568.535 372.108C568.332 371.088 567.831 370.151 567.097 369.415C566.362 368.68 565.425 368.179 564.406 367.976ZM594.906 367.875C593.867 367.875 592.851 368.184 591.987 368.762C591.123 369.34 590.45 370.161 590.052 371.122C589.655 372.083 589.551 373.141 589.753 374.161C589.956 375.181 590.457 376.119 591.191 376.854C591.926 377.589 592.862 378.09 593.881 378.293C594.9 378.496 595.957 378.392 596.917 377.994C597.877 377.596 598.698 376.921 599.275 376.056C599.852 375.191 600.161 374.175 600.161 373.135C600.161 371.74 599.607 370.402 598.621 369.415C597.636 368.429 596.3 367.875 594.906 367.875Z" fill="white"/>
</svg>
