<svg width="40" height="40" viewBox="0 0 40 40" fill="none" xmlns="http://www.w3.org/2000/svg">
<path opacity="0.2" d="M20 12.5V35C20 35 3.75 26.25 3.75 15.9375C3.75 13.6997 4.63895 11.5536 6.22129 9.97129C7.80363 8.38895 9.94974 7.5 12.1875 7.5C15.7172 7.5 18.7406 9.42344 20 12.5Z" fill="#353849"/>
<path d="M27.8125 6.25C24.5859 6.25 21.7609 7.6375 20 9.98281C18.2391 7.6375 15.4141 6.25 12.1875 6.25C9.6191 6.25289 7.15673 7.27447 5.3406 9.0906C3.52447 10.9067 2.50289 13.3691 2.5 15.9375C2.5 26.875 18.7172 35.7297 19.4078 36.0938C19.5898 36.1917 19.7933 36.2429 20 36.2429C20.2067 36.2429 20.4102 36.1917 20.5922 36.0938C21.2828 35.7297 37.5 26.875 37.5 15.9375C37.4971 13.3691 36.4755 10.9067 34.6594 9.0906C32.8433 7.27447 30.3809 6.25289 27.8125 6.25ZM5 15.9375C5.00248 14.032 5.76053 12.2053 7.10791 10.8579C8.45529 9.51053 10.282 8.75248 12.1875 8.75C15.1422 8.75 17.6344 10.2797 18.75 12.7578V32.8125C14.6234 30.225 5 23.4031 5 15.9375ZM21.25 32.8125V12.7578C22.3656 10.2797 24.8578 8.75 27.8125 8.75C29.718 8.75248 31.5447 9.51053 32.8921 10.8579C34.2395 12.2053 34.9975 14.032 35 15.9375C35 23.3922 25.3781 30.2203 21.25 32.8125Z" fill="#353849"/>
<path opacity="0.2" d="M20 12.5V35C20 35 3.75 26.25 3.75 15.9375C3.75 13.6997 4.63895 11.5536 6.22129 9.97129C7.80363 8.38895 9.94974 7.5 12.1875 7.5C15.7172 7.5 18.7406 9.42344 20 12.5Z" fill="#353849"/>
<path d="M27.8125 6.25C24.5859 6.25 21.7609 7.6375 20 9.98281C18.2391 7.6375 15.4141 6.25 12.1875 6.25C9.6191 6.25289 7.15673 7.27447 5.3406 9.0906C3.52447 10.9067 2.50289 13.3691 2.5 15.9375C2.5 26.875 18.7172 35.7297 19.4078 36.0938C19.5898 36.1917 19.7933 36.2429 20 36.2429C20.2067 36.2429 20.4102 36.1917 20.5922 36.0938C21.2828 35.7297 37.5 26.875 37.5 15.9375C37.4971 13.3691 36.4755 10.9067 34.6594 9.0906C32.8433 7.27447 30.3809 6.25289 27.8125 6.25ZM5 15.9375C5.00248 14.032 5.76053 12.2053 7.10791 10.8579C8.45529 9.51053 10.282 8.75248 12.1875 8.75C15.1422 8.75 17.6344 10.2797 18.75 12.7578V32.8125C14.6234 30.225 5 23.4031 5 15.9375ZM21.25 32.8125V12.7578C22.3656 10.2797 24.8578 8.75 27.8125 8.75C29.718 8.75248 31.5447 9.51053 32.8921 10.8579C34.2395 12.2053 34.9975 14.032 35 15.9375C35 23.3922 25.3781 30.2203 21.25 32.8125Z" fill="#353849"/>
</svg>
