<svg width="174" height="174" viewBox="0 0 174 174" fill="none" xmlns="http://www.w3.org/2000/svg">
<circle opacity="0.1" cx="87" cy="87" r="87" fill="#F4AC45"/>
<circle opacity="0.1" cx="87" cy="86.5" r="64" fill="#F4AC45"/>
<path d="M87 47.5C79.2865 47.5 71.7463 49.7873 65.3328 54.0727C58.9193 58.3581 53.9205 64.449 50.9687 71.5753C48.0169 78.7017 47.2446 86.5433 48.7494 94.1085C50.2542 101.674 53.9686 108.623 59.4229 114.077C64.8771 119.531 71.8262 123.246 79.3915 124.751C86.9568 126.255 94.7984 125.483 101.925 122.531C109.051 119.579 115.142 114.581 119.427 108.167C123.713 101.754 126 94.2135 126 86.5C125.989 76.1599 121.877 66.2464 114.565 58.9349C107.254 51.6233 97.3401 47.5109 87 47.5ZM104.123 79.6225L83.1225 100.623C82.8439 100.901 82.513 101.123 82.1488 101.274C81.7846 101.425 81.3943 101.502 81 101.502C80.6058 101.502 80.2154 101.425 79.8512 101.274C79.487 101.123 79.1561 100.901 78.8775 100.623L69.8775 91.6225C69.3146 91.0596 68.9983 90.2961 68.9983 89.5C68.9984 88.7039 69.3146 87.9404 69.8775 87.3775C70.4404 86.8146 71.2039 86.4983 72 86.4983C72.7961 86.4983 73.5596 86.8146 74.1225 87.3775L81 94.2588L99.8775 75.3775C100.156 75.0988 100.487 74.8777 100.851 74.7268C101.216 74.576 101.606 74.4983 102 74.4983C102.394 74.4983 102.785 74.576 103.149 74.7268C103.513 74.8777 103.844 75.0988 104.123 75.3775C104.401 75.6562 104.622 75.9871 104.773 76.3513C104.924 76.7155 105.002 77.1058 105.002 77.5C105.002 77.8942 104.924 78.2845 104.773 78.6487C104.622 79.0129 104.401 79.3438 104.123 79.6225Z" fill="#F4AC45"/>
</svg>
