<svg width="78" height="71" viewBox="0 0 78 71" fill="none" xmlns="http://www.w3.org/2000/svg">
<path d="M77.5957 73.5102C77.3323 73.9663 76.9535 74.3451 76.4973 74.6084C76.0411 74.8717 75.5237 75.0103 74.9969 75.0102H2.99692C2.47058 75.0097 1.95363 74.8706 1.498 74.6071C1.04237 74.3436 0.664096 73.9648 0.401155 73.5089C0.138214 73.0529 -0.000135031 72.5358 9.88941e-08 72.0094C0.000135229 71.4831 0.138749 70.966 0.401924 70.5102C6.11317 60.6364 14.9144 53.5564 25.1857 50.2002C20.1051 47.1757 16.1577 42.567 13.9499 37.0819C11.742 31.5969 11.3957 25.5387 12.9642 19.8378C14.5327 14.1369 17.9291 9.10843 22.632 5.52467C27.3349 1.94091 33.0842 0 38.9969 0C44.9097 0 50.6589 1.94091 55.3618 5.52467C60.0647 9.10843 63.4612 14.1369 65.0296 19.8378C66.5981 25.5387 66.2518 31.5969 64.044 37.0819C61.8361 42.567 57.8888 47.1757 52.8082 50.2002C63.0794 53.5564 71.8807 60.6364 77.5919 70.5102C77.8558 70.9659 77.9951 71.4831 77.9957 72.0097C77.9964 72.5363 77.8584 73.0538 77.5957 73.5102Z" fill="#FFB5A9"/>
</svg>
